<?xml version="1.0" encoding="UTF-8"?>
<svg width="342px" height="207px" viewBox="0 0 342 207" version="1.1" xmlns="http://www.w3.org/2000/svg" xmlns:xlink="http://www.w3.org/1999/xlink">
    <!-- Generator: Sketch 53.2 (72643) - https://sketchapp.com -->
    <title>Group 33@1.5x</title>
    <desc>Created with Sketch.</desc>
    <g id="Page-1" stroke="none" stroke-width="1" fill="none" fill-rule="evenodd">
        <g id="Group-33">
            <g id="Group-32">
                <path d="M310.583997,207 L36.6832949,207 C27.8889266,207 20.6929035,202.978779 20.6929035,198.060872 L20.6929035,194.486453 C20.6929035,192.286337 22.1389703,190.264942 24.521453,188.702674 L15.9900059,188.702674 C7.19563759,188.702674 0,184.679913 0,179.763855 C0,174.847488 7.19563759,170.825651 15.9900059,170.825651 L40.4736785,170.825651 C35.4315277,169.317 31.9803974,166.342837 31.9803974,162.938512 C31.9803974,158.022453 39.1756494,154 47.9704033,154 L326.009994,154 C334.80629,154 342,158.022453 342,162.938512 C342,167.85457 334.80629,171.877023 326.009994,171.877023 L293.089326,171.756233 C296.498049,172.29332 297.874338,173.721855 298.73288,175.52293 C300.057895,178.301116 299.937229,181.65768 297.227829,183.863035 C295.720466,185.089738 293.491032,185.715262 292.066169,185.745151 L310.583997,185.547634 C319.37875,185.547634 326.574388,189.568547 326.574388,194.486453 L326.574388,198.060872 C326.574388,202.978779 319.37875,207 310.583997,207" id="Fill-3" fill="#DBFFFC"></path>
                <path d="M188,143 L171.881881,139.273511 C171.573377,139.202282 171.278615,139.110184 171,139 C171.278615,139.110184 171.573377,139.202282 171.881881,139.273511 L188,143" id="Fill-34" fill="#474F60"></path>
                <path d="M188,143 L171.881881,139.274807 C171.573377,139.203602 171.278615,139.111536 171,139.001391 L171.000344,139 L188,143" id="Fill-35" fill="#474F60"></path>
                <path d="M171,139 C168.753229,137.928752 167.526083,135.435022 168.171476,133 C167.526083,135.434685 168.753575,137.928752 171,139" id="Fill-29" fill="#D9E9F5"></path>
                <path d="M171.000073,139 L171.000073,139 C171.000073,139 170.999743,139 171.000073,139" id="Fill-31" fill="#4F586B"></path>
                <g id="Group-11" transform="translate(83.000000, 0.000000)">
                    <polyline id="Fill-5" fill="#EACDB0" transform="translate(109.406898, 20.304556) rotate(19.000000) translate(-109.406898, -20.304556) " points="114.752401 23.6653866 112.155645 21.0177264 112.11714 17.6138875 111.445493 17.2574159 111.004124 18.1339596 110.223764 15.3199402 108.386518 14.0000815 105.638949 15.1301884 104.061396 17.9353976 105.384259 20.7619764 108.305033 22.8183708 111.713694 26.6090297 114.752401 23.6653866"></polyline>
                    <polyline id="Fill-4" fill="#29ADA3" transform="translate(123.071811, 38.838477) rotate(19.000000) translate(-123.071811, -38.838477) " points="109.261548 25.9029349 104.598778 31.5383679 117.075172 50.9001749 121.723681 52.4270591 141.544845 36.2854875 136.257227 25.2498948 121.473583 38.0792559 109.261548 25.9029349"></polyline>
                    <polyline id="Fill-11" fill="#879EB8" points="64.9727582 38.8307496 52.6438351 53.8237449 36.5470505 37.8241206 34.0437158 56.9512441 53.6385963 66.919598 69.0601093 43.198282 64.9727582 38.8307496"></polyline>
                    <g id="Group-5" transform="translate(87.448087, 22.500000) scale(-1, 1) translate(-87.448087, -22.500000) translate(48.448087, 0.000000)">
                        <path d="M75.8231094,25.6289726 L72.0046292,20.9928817 L71.8747552,20.9777736 C71.690418,20.4413203 71.5060808,19.9048669 71.3217436,19.3684136 C70.3490855,16.5364607 69.3761947,13.7045078 68.4033038,10.8727874 C67.5474857,8.38204484 67.0126285,4.23499104 63.8349063,3.83776456 L33.6306022,0.0644616041 C30.275758,-0.354613499 26.9665327,1.29402749 25.1287465,4.2998396 L18.7302436,14.7660253 L18.2268075,14.7069876 L7.70934535,16.6261795 C3.94090618,17.9173399 1.23775922,21.2390273 0.743167578,25.1868868 L0,31.1190192 L76.6891685,40.6996385 L77.7465472,32.2595636 C78.0446987,29.8794587 77.3492446,27.481689 75.8231094,25.6289726" id="Fill-30" fill="#FF9101"></path>
                        <path d="M45.9103825,16.3714503 L66.1420765,18.7844486 L62.9629472,7.44663164 C62.8047501,6.88209119 62.3243172,6.47105049 61.7422363,6.40154117 L47.4423466,4.69611214 L45.9103825,16.3714503" id="Fill-31" fill="#B4E1EF"></path>
                        <path d="M45.1322404,3.09998582 L33.5936117,1.61383371 C31.1484349,1.29882888 28.7362947,2.53776806 27.3969148,4.79646054 L22.5661202,12.9437073 L43.6069713,15.6537071 L45.1322404,3.09998582" id="Fill-32" fill="#B4E1EF"></path>
                        <path d="M63.8076503,10.957595 C63.585055,10.8075073 63.3626951,10.6574196 63.1400999,10.5077793 C61.0303866,9.08966299 58.9065552,7.68944093 56.8043716,6.26148285 L61.7925282,6.85467597 C62.0668897,6.88710922 62.3188977,6.99492185 62.5254924,7.15843021 C62.7123218,7.33513554 62.8525615,7.561721 62.9252696,7.82029236 L63.8076503,10.957595" id="Fill-34" fill="#C3E7EF"></path>
                        <path d="M65.3639344,17.2190778 C64.74771,16.8704483 64.1332998,16.5242738 63.5511421,16.1543034 C61.7458081,15.0068098 59.9973192,13.7824514 58.2953948,12.5042689 C55.4638265,10.3777418 52.2538959,8.00891148 49.8010929,5.4787975 L53.8181424,5.88880552 C56.7646103,7.93960105 59.8878622,10.1771759 62.8744442,12.1767913 C63.3090467,12.4678195 63.7426413,12.7603587 64.1754296,13.0542198 L65.3639344,17.2190778" id="Fill-36" fill="#C3E7EF"></path>
                        <path d="M44.3540984,15.6802504 L40.4411553,15.237863 L44.3540984,15.6802504 M27.2408421,5.94772811 L27.2408421,5.94772811 L27.3396439,5.85214703 C27.4614343,5.73433107 27.5881158,5.61853646 27.7182211,5.50534074 C27.5881158,5.61853646 27.4619234,5.73433107 27.3396439,5.85214703 L27.2408421,5.94772811" id="Fill-37" fill="#EFC067"></path>
                        <path d="M42.5376488,14.8710218 L38.8372993,14.4229858 C36.4112787,12.7666939 33.9160558,11.1939054 31.7221692,9.25001419 C30.2389197,7.93578946 28.7304859,6.64191075 27.2349727,5.33531578 L27.2792096,5.26516445 C27.3339582,5.17869393 27.3904587,5.09370698 27.4487113,5.01062746 C28.0093371,4.21225872 28.7385887,3.57559834 29.5633218,3.13074143 C30.0744549,3.40710799 30.5875589,3.68156711 31.0923412,3.97064992 C32.6237694,4.8482833 34.0835865,5.86558352 35.5225991,6.87694949 C36.9434352,7.8755992 38.3509126,8.90370824 39.6961956,9.99667016 C40.7913869,10.886384 41.7648173,11.9028364 42.7978142,12.8582509 L42.5376488,14.8710218" id="Fill-38" fill="#C3E7EF"></path>
                        <path d="M28.5089602,34.4381557 L28.4924158,34.4362667 L26.1322326,34.1259917 C26.18872,33.8865558 26.2329173,33.6419251 26.2643518,33.3920994 C26.7058521,29.8645521 24.3967203,26.6262642 21.0098361,25.8286168 C21.2927461,25.8373536 21.5787286,25.8595498 21.866602,25.8954416 C26.1175789,26.4267343 29.1983909,29.7767117 28.7474366,33.3776955 C28.7015849,33.7432249 28.6212261,34.09742 28.5089602,34.4381557" id="Fill-40" fill="#FFC14F"></path>
                        <path d="M67.4113725,39.1342678 L65.1162765,38.8378118 C65.1739798,38.5977108 65.2191285,38.3519269 65.2512395,38.1014073 C65.7007944,34.575427 63.3583768,31.3376152 59.9169399,30.5247289 C60.2114925,30.5318325 60.5094252,30.55338 60.8095309,30.5900818 C65.0493986,31.1103007 68.1129872,34.4591651 67.6525677,38.0701516 C67.605729,38.4369331 67.5243649,38.7923488 67.4113725,39.1342678" id="Fill-41" fill="#FFC14F"></path>
                        <path d="M26.4050019,32.9643617 C25.9514633,36.8241749 22.6459781,39.5618484 19.0215207,39.0790702 C15.3972898,38.5960506 12.8269358,35.0757022 13.2802478,31.215889 C13.7337864,27.3558345 17.0392716,24.618161 20.6635025,25.1011805 C24.2877334,25.5839587 26.8583139,29.1045484 26.4050019,32.9643617" id="Fill-42" fill="#363636"></path>
                        <path d="M18.3865461,35.534598 C16.4952391,34.5095213 15.7881119,32.1365666 16.8072484,30.2342357 C17.8261502,28.3319049 20.1855886,27.6206561 22.0766609,28.6454967 C23.9679679,29.6705734 24.6753299,32.0437642 23.6561934,33.9458589 C22.6372916,35.8481898 20.2778532,36.5596747 18.3865461,35.534598" id="Fill-43" fill="#FFFFF1"></path>
                        <path d="M20.4897683,35.220841 C20.3813653,35.220841 20.2724921,35.2184491 20.1643242,35.2150499 C19.9063675,35.2072445 19.6474702,35.1938997 19.3982139,35.1572644 C18.7268679,35.058815 18.1540488,34.7843652 17.8972678,34.4381557 C17.9816857,34.5504535 18.722165,34.6750889 18.9062854,34.705933 C19.4092658,34.7902823 19.9277659,34.8544884 20.4556719,34.8682109 C20.5205726,34.8699734 20.5859436,34.8708547 20.6510795,34.8708547 C21.3351234,34.8708547 22.0295138,34.7766857 22.5661202,34.5519642 C22.2529038,34.8980479 21.6060132,35.1513473 20.8949273,35.206615 C20.7608933,35.2170642 20.6254484,35.220841 20.4897683,35.220841" id="Fill-44" fill="#E5E5D8"></path>
                        <path d="M66.087199,38.7859121 C65.6069817,42.4313035 62.1070562,45.0168928 58.2693954,44.560934 C54.4319745,44.1047474 51.7104232,40.7799626 52.1904006,37.1345712 C52.6703781,33.4889519 56.1703036,30.9035905 60.0079644,31.3595493 C63.8453853,31.8155081 66.5671765,35.1405207 66.087199,38.7859121" id="Fill-45" fill="#363636"></path>
                        <path d="M57.2937067,40.2307039 C55.4024184,39.2056134 54.6952982,36.8328632 55.7141899,34.9302708 C56.7333163,33.0279145 59.0924966,32.3168924 60.9837849,33.3415105 C62.8750733,34.3666009 63.5824282,36.7398235 62.5633018,38.6419436 C61.5444101,40.5442998 59.1849951,41.2557943 57.2937067,40.2307039" id="Fill-46" fill="#FFFFF1"></path>
                        <path d="M59.3967416,39.9169532 C59.2883441,39.9169532 59.1797114,39.9145612 59.071549,39.911162 C58.8136053,39.9033566 58.554721,39.8900118 58.3052421,39.8533765 C57.6341651,39.7549271 57.0613748,39.4806033 56.8043716,39.1342678 C56.8890204,39.2465656 57.6296975,39.3712011 57.8135736,39.4021711 C58.3162935,39.4863944 58.8350026,39.5506005 59.362882,39.5644489 C59.4277795,39.5660856 59.492912,39.5669668 59.5580446,39.5669668 C60.2422892,39.5669668 60.9366446,39.4727978 61.473224,39.2480763 C61.1597883,39.59416 60.5131654,39.8475854 59.8021153,39.9027271 C59.6678529,39.9131764 59.5324148,39.9169532 59.3967416,39.9169532" id="Fill-47" fill="#E5E5D8"></path>
                        <path d="M40.5070431,20.3498193 C40.4779715,20.3498193 40.4486556,20.3482679 40.4188511,20.345359 L37.9663331,20.1017879 C37.5813179,20.0635845 37.3081916,19.7847189 37.3563185,19.4790915 L37.3888102,19.273336 C37.4332727,18.9909798 37.7359592,18.7844486 38.0850625,18.7844486 C38.1143784,18.7844486 38.1436942,18.786 38.1732544,18.7889089 L40.6257724,19.0324799 C41.011032,19.0706833 41.2841583,19.3495489 41.2360314,19.6553702 L41.2035396,19.8611257 C41.1590772,20.1432881 40.8563907,20.3498193 40.5070431,20.3498193" id="Fill-48" fill="#FFC14F"></path>
                    </g>
                    <polyline id="Fill-14" fill="#E8B98A" points="49.6065574 115.331406 39.3188404 189.120603 34.6425277 189.120603 33.8008598 141.821661 25.2896175 108.623116 49.6065574 115.331406"></polyline>
                    <polyline id="Fill-13" fill="#E8B98A" points="11.5493227 105.613765 10.6994536 113.540411 18.2254533 140.77393 11.2368752 184.536344 16.3810247 186.211055 29.9456785 143.485678 32.0983607 131.056528 32.0198743 104.743719 11.5493227 105.613765"></polyline>
                    <polyline id="Fill-15" fill="#191718" points="34.0437158 187.180905 34.0437158 190.089358 39.2313297 193 41.8251366 190.089358 39.2313297 187.180905 34.0437158 187.180905"></polyline>
                    <path d="M36.8107978,37.6874064 C36.4398372,37.0783202 35.9441769,36.5594797 35.2641777,36.1741453 C30.6097645,33.5369686 22.8946416,35.859575 17.8441566,35.8598615 C16.3517539,51.6373695 12.2255314,66.6742908 9.56032265,82.1653049 C6.72960846,98.6177927 3.54277216,115.008398 0.0020965846,131.321363 C-0.146287627,132.004651 7.61648948,131.927584 12.211549,131.850231 C13.8280809,131.8233 15.0528213,131.796083 15.4026656,131.8021 C29.1182178,132.03416 47.0718514,131.986602 60.3060109,127.823272 C51.8600957,105.058463 48.7762723,80.5640902 42.1252354,57.2070983 C40.9578511,53.1065105 39.5713148,49.0675189 38.519499,44.9336977 C37.9099824,42.5374624 38.0038639,39.645306 36.8107978,37.6874064" id="Fill-16" fill="#7DB7E0"></path>
                    <polyline id="Fill-20" fill="#191718" points="157.543356 84.3768844 163.727961 98.7374834 164.311003 139.141268 177.027322 182.600795 171.114578 185.241206 145.165376 134.77828 142.211974 118.795092 141.038251 85.1329153 157.543356 84.3768844"></polyline>
                    <polyline id="Fill-21" fill="#191718" points="126.917698 88.1943635 126.448087 130.584751 134.095913 185.241206 139.976692 185.241206 143.690438 134.809188 151.737705 84.3768844 126.917698 88.1943635"></polyline>
                    <polyline id="Fill-22" fill="#2EB9AE" points="142.010929 184.271357 142.010929 187.665246 134.878062 191.060302 131.311475 187.665246 134.878062 184.271357 142.010929 184.271357"></polyline>
                    <path d="M140.240022,29.701283 L156.415889,29.0954774 C156.415889,29.0954774 166.092513,37.681107 171.093822,59.9909933 C176.186172,82.708276 170.153444,115.41206 170.153444,115.41206 C170.153444,115.41206 126.755233,109.563277 119.639344,108.659858 L130.495824,63.806511 L140.240022,29.701283" id="Fill-23" fill="#2EB9AE"></path>
                    <path d="M145.618881,32.0050251 C147.500225,31.8105679 149.381568,31.6161107 151.263193,31.4213558 C151.283468,29.8272832 151.182938,28.2317218 150.963293,26.6543255 C152.532064,26.0736341 154.344698,25.2020013 154.620381,23.4685628 C154.706831,22.9227128 154.61841,22.3643556 154.529989,21.8188035 C154.164195,19.5633383 153.798965,17.3075753 153.433172,15.0518123 C153.306735,14.271899 153.172132,13.468758 152.771984,12.7999205 C152.069684,11.6263282 150.704224,11.1111506 149.410572,10.8720249 C146.10914,10.2609588 142.509779,11.0122842 139.94641,13.2957417 C139.264103,13.9035321 138.647126,14.63431 138.345537,15.5223212 C137.880622,16.8909664 138.225014,18.4019553 138.572503,19.8093132 C138.893241,21.1082753 139.214261,22.4069397 139.534717,23.7059018 C139.903889,25.1999167 140.436951,26.8985137 141.796778,27.4604444 C142.519072,27.7588305 143.372026,27.6733646 144.025611,28.1140945 C145.178183,28.8916255 145.02049,30.7051696 145.618881,32.0050251" id="Fill-24" fill="#E8B98A"></path>
                    <path d="M143.492007,31.8808605 L126.840325,100.662641 L125.47541,109.683564 L146.221836,112.502513 C146.221836,112.502513 145.402888,79.5651248 145.676147,75.173454 C145.948853,70.7820692 149.025587,61.2836981 149.497632,51.049427 C149.770892,45.1299203 151.591516,34.4968222 150.316581,31.0351759 L143.492007,31.8808605" id="Fill-26" fill="#FFFFFF"></path>
                    <path d="M125.47541,68.8540215 C131.549769,67.4700201 137.624128,66.0863022 143.698487,64.7023008 C145.333701,64.3301538 147.029305,64.2502259 148.664519,63.8656078 C151.055344,63.303561 151.710305,63.1074256 152.0461,60.8923999 C153.019643,54.4723683 151.782657,47.8117024 152.780414,41.4877544 C155.179408,41.2561899 157.495839,40.7034964 159.944721,40.7349574 C163.943628,40.7862587 163.597039,43.459028 163.821972,46.4367709 C164.088624,49.968341 164.247623,53.5109649 164.272713,57.0521717 C164.293427,59.9865494 165.290309,72.7138065 160.853206,73.6448826 C157.67351,74.322003 125.62945,75.9795168 125.643161,76.6180905 C125.637618,76.3610171 125.47541,68.8540215 125.47541,68.8540215" id="Fill-28" fill="#2EB9AE"></path>
                    <g id="Group-5" transform="translate(27.234973, 54.311558)">
                        <path d="M75.8231094,25.6289726 L72.0046292,20.9928817 L71.8747552,20.9777736 C71.690418,20.4413203 71.5060808,19.9048669 71.3217436,19.3684136 C70.3490855,16.5364607 69.3761947,13.7045078 68.4033038,10.8727874 C67.5474857,8.38204484 67.0126285,4.23499104 63.8349063,3.83776456 L33.6306022,0.0644616041 C30.275758,-0.354613499 26.9665327,1.29402749 25.1287465,4.2998396 L18.7302436,14.7660253 L18.2268075,14.7069876 L7.70934535,16.6261795 C3.94090618,17.9173399 1.23775922,21.2390273 0.743167578,25.1868868 L0,31.1190192 L76.6891685,40.6996385 L77.7465472,32.2595636 C78.0446987,29.8794587 77.3492446,27.481689 75.8231094,25.6289726" id="Fill-30" fill="#4E6279"></path>
                        <path d="M45.9103825,16.3714503 L66.1420765,18.7844486 L62.9629472,7.44663164 C62.8047501,6.88209119 62.3243172,6.47105049 61.7422363,6.40154117 L47.4423466,4.69611214 L45.9103825,16.3714503" id="Fill-31" fill="#B4E1EF"></path>
                        <path d="M45.1322404,3.09998582 L33.5936117,1.61383371 C31.1484349,1.29882888 28.7362947,2.53776806 27.3969148,4.79646054 L22.5661202,12.9437073 L43.6069713,15.6537071 L45.1322404,3.09998582" id="Fill-32" fill="#B4E1EF"></path>
                        <path d="M63.8076503,10.957595 C63.585055,10.8075073 63.3626951,10.6574196 63.1400999,10.5077793 C61.0303866,9.08966299 58.9065552,7.68944093 56.8043716,6.26148285 L61.7925282,6.85467597 C62.0668897,6.88710922 62.3188977,6.99492185 62.5254924,7.15843021 C62.7123218,7.33513554 62.8525615,7.561721 62.9252696,7.82029236 L63.8076503,10.957595" id="Fill-34" fill="#C3E7EF"></path>
                        <path d="M65.3639344,17.2190778 C64.74771,16.8704483 64.1332998,16.5242738 63.5511421,16.1543034 C61.7458081,15.0068098 59.9973192,13.7824514 58.2953948,12.5042689 C55.4638265,10.3777418 52.2538959,8.00891148 49.8010929,5.4787975 L53.8181424,5.88880552 C56.7646103,7.93960105 59.8878622,10.1771759 62.8744442,12.1767913 C63.3090467,12.4678195 63.7426413,12.7603587 64.1754296,13.0542198 L65.3639344,17.2190778" id="Fill-36" fill="#C3E7EF"></path>
                        <path d="M44.3540984,15.6802504 L40.4411553,15.237863 L44.3540984,15.6802504 M27.2408421,5.94772811 L27.2408421,5.94772811 L27.3396439,5.85214703 C27.4614343,5.73433107 27.5881158,5.61853646 27.7182211,5.50534074 C27.5881158,5.61853646 27.4619234,5.73433107 27.3396439,5.85214703 L27.2408421,5.94772811" id="Fill-37" fill="#EFC067"></path>
                        <path d="M42.5376488,14.8710218 L38.8372993,14.4229858 C36.4112787,12.7666939 33.9160558,11.1939054 31.7221692,9.25001419 C30.2389197,7.93578946 28.7304859,6.64191075 27.2349727,5.33531578 L27.2792096,5.26516445 C27.3339582,5.17869393 27.3904587,5.09370698 27.4487113,5.01062746 C28.0093371,4.21225872 28.7385887,3.57559834 29.5633218,3.13074143 C30.0744549,3.40710799 30.5875589,3.68156711 31.0923412,3.97064992 C32.6237694,4.8482833 34.0835865,5.86558352 35.5225991,6.87694949 C36.9434352,7.8755992 38.3509126,8.90370824 39.6961956,9.99667016 C40.7913869,10.886384 41.7648173,11.9028364 42.7978142,12.8582509 L42.5376488,14.8710218" id="Fill-38" fill="#C3E7EF"></path>
                        <path d="M28.5089602,34.4381557 L28.4924158,34.4362667 L26.1322326,34.1259917 C26.18872,33.8865558 26.2329173,33.6419251 26.2643518,33.3920994 C26.7058521,29.8645521 24.3967203,26.6262642 21.0098361,25.8286168 C21.2927461,25.8373536 21.5787286,25.8595498 21.866602,25.8954416 C26.1175789,26.4267343 29.1983909,29.7767117 28.7474366,33.3776955 C28.7015849,33.7432249 28.6212261,34.09742 28.5089602,34.4381557" id="Fill-40" fill="#879EB8"></path>
                        <path d="M67.4113725,39.1342678 L65.1162765,38.8378118 C65.1739798,38.5977108 65.2191285,38.3519269 65.2512395,38.1014073 C65.7007944,34.575427 63.3583768,31.3376152 59.9169399,30.5247289 C60.2114925,30.5318325 60.5094252,30.55338 60.8095309,30.5900818 C65.0493986,31.1103007 68.1129872,34.4591651 67.6525677,38.0701516 C67.605729,38.4369331 67.5243649,38.7923488 67.4113725,39.1342678" id="Fill-41" fill="#879EB8"></path>
                        <path d="M26.4050019,32.9643617 C25.9514633,36.8241749 22.6459781,39.5618484 19.0215207,39.0790702 C15.3972898,38.5960506 12.8269358,35.0757022 13.2802478,31.215889 C13.7337864,27.3558345 17.0392716,24.618161 20.6635025,25.1011805 C24.2877334,25.5839587 26.8583139,29.1045484 26.4050019,32.9643617" id="Fill-42" fill="#363636"></path>
                        <path d="M18.3865461,35.534598 C16.4952391,34.5095213 15.7881119,32.1365666 16.8072484,30.2342357 C17.8261502,28.3319049 20.1855886,27.6206561 22.0766609,28.6454967 C23.9679679,29.6705734 24.6753299,32.0437642 23.6561934,33.9458589 C22.6372916,35.8481898 20.2778532,36.5596747 18.3865461,35.534598" id="Fill-43" fill="#FFFFF1"></path>
                        <path d="M20.4897683,35.220841 C20.3813653,35.220841 20.2724921,35.2184491 20.1643242,35.2150499 C19.9063675,35.2072445 19.6474702,35.1938997 19.3982139,35.1572644 C18.7268679,35.058815 18.1540488,34.7843652 17.8972678,34.4381557 C17.9816857,34.5504535 18.722165,34.6750889 18.9062854,34.705933 C19.4092658,34.7902823 19.9277659,34.8544884 20.4556719,34.8682109 C20.5205726,34.8699734 20.5859436,34.8708547 20.6510795,34.8708547 C21.3351234,34.8708547 22.0295138,34.7766857 22.5661202,34.5519642 C22.2529038,34.8980479 21.6060132,35.1513473 20.8949273,35.206615 C20.7608933,35.2170642 20.6254484,35.220841 20.4897683,35.220841" id="Fill-44" fill="#E5E5D8"></path>
                        <path d="M66.087199,38.7859121 C65.6069817,42.4313035 62.1070562,45.0168928 58.2693954,44.560934 C54.4319745,44.1047474 51.7104232,40.7799626 52.1904006,37.1345712 C52.6703781,33.4889519 56.1703036,30.9035905 60.0079644,31.3595493 C63.8453853,31.8155081 66.5671765,35.1405207 66.087199,38.7859121" id="Fill-45" fill="#363636"></path>
                        <path d="M57.2937067,41.2005531 C55.4024184,40.1754627 54.6952982,37.8027125 55.7141899,35.9001201 C56.7333163,33.9977638 59.0924966,33.2867416 60.9837849,34.3113598 C62.8750733,35.3364502 63.5824282,37.7096727 62.5633018,39.6117928 C61.5444101,41.5141491 59.1849951,42.2256436 57.2937067,41.2005531" id="Fill-46" fill="#FFFFF1"></path>
                        <path d="M59.3967416,40.8868024 C59.2883441,40.8868024 59.1797114,40.8844104 59.071549,40.8810113 C58.8136053,40.8732058 58.554721,40.859861 58.3052421,40.8232258 C57.6341651,40.7247764 57.0613748,40.4504525 56.8043716,40.1041171 C56.8890204,40.2164149 57.6296975,40.3410503 57.8135736,40.3720203 C58.3162935,40.4562437 58.8350026,40.5204498 59.362882,40.5342982 C59.4277795,40.5359348 59.492912,40.5368161 59.5580446,40.5368161 C60.2422892,40.5368161 60.9366446,40.4426471 61.473224,40.2179256 C61.1597883,40.5640092 60.5131654,40.8174346 59.8021153,40.8725764 C59.6678529,40.8830256 59.5324148,40.8868024 59.3967416,40.8868024" id="Fill-47" fill="#E5E5D8"></path>
                        <path d="M40.5070431,20.3498193 C40.4779715,20.3498193 40.4486556,20.3482679 40.4188511,20.345359 L37.9663331,20.1017879 C37.5813179,20.0635845 37.3081916,19.7847189 37.3563185,19.4790915 L37.3888102,19.273336 C37.4332727,18.9909798 37.7359592,18.7844486 38.0850625,18.7844486 C38.1143784,18.7844486 38.1436942,18.786 38.1732544,18.7889089 L40.6257724,19.0324799 C41.011032,19.0706833 41.2841583,19.3495489 41.2360314,19.6553702 L41.2035396,19.8611257 C41.1590772,20.1432881 40.8563907,20.3498193 40.5070431,20.3498193" id="Fill-48" fill="#879EB8"></path>
                    </g>
                    <polyline id="Fill-27" fill="#EACDB0" points="128.364095 68.335734 124.575839 69.4813205 121.492619 67.8894472 120.80793 68.3430324 121.357546 69.1718121 118.402899 68.5511735 116.220258 69.6264786 115.748634 72.7188593 117.417263 75.5255191 120.676813 75.6482412 124.109019 73.9187786 129.36612 72.5655918 128.364095 68.335734"></polyline>
                    <path d="M57.9083607,77.7317906 L57.8402732,77.7292244 L57.9083607,77.7315055 C57.9083607,77.7317906 57.9083607,77.7317906 57.9083607,77.7317906" id="Fill-39" fill="#E5E5E5"></path>
                    <polyline id="Fill-12" fill="#191718" points="10.9391492 184.348552 10.6994536 187.335943 14.9988344 191.060302 17.5081967 188.442852 15.4782258 185.086491 11.1791015 181.361809 10.9391492 184.348552"></polyline>
                    <path d="M38.4556155,18.9573306 C36.733146,9.73696434 25.3702179,11.330409 22.1107882,18.7967639 C20.2570646,23.042616 22.1990216,29.0533136 25.9070168,32.0074089 C25.9864816,32.8238548 26.091156,35.0756788 26.7065977,35.6215502 C27.3730066,36.2127026 29.4733452,35.6493299 30.2962177,35.4559831 C30.5244736,35.402646 30.7625942,35.3359747 30.9281004,35.1681852 C31.1352571,34.957615 31.1700572,34.3942423 31.1738934,33.770032 C31.7781004,33.7283624 32.3968304,33.6091874 33.0265209,33.3994506 C35.6694128,32.5196669 37.5836941,30.0392158 38.3750546,27.3356937 C39.1664151,24.6324493 38.9732332,21.7278019 38.4556155,18.9573306" id="Fill-18" fill="#E8B98A"></path>
                    <polyline id="Fill-19" fill="#2EB9AE" points="177.273196 183.507761 178 186.623287 172.241993 191.060302 168.273224 188.604146 170.789266 184.8287 176.546685 180.39196 177.273196 183.507761"></polyline>
                    <path d="M20.1428811,58.1057022 C20.2558397,58.0993227 20.3470644,58.0906235 20.4136957,58.0790245 C22.5055743,57.7145262 25.8623031,57.0298956 26.8337469,54.7950598 C27.8289263,52.5051287 26.060767,48.3509496 25.7687905,45.9714163 C25.3252493,42.3542705 25.1779742,38.7060974 25.0063916,35.0680734 C24.8513952,31.7878784 26.0072904,28.5555292 27.6993814,25.7555324 C29.3914724,22.9558256 31.6051747,20.5249668 33.7851324,18.0967177 C34.6916608,17.0864455 35.6299319,16.0062893 35.9070379,14.6697954 C36.2135989,13.1915038 35.6302179,11.6311494 34.6687831,10.4773396 C33.1891686,8.70153388 31.433306,7.81827061 29.1987279,7.76433529 C21.3556845,7.57440179 15.4595324,12.2789531 13.2343913,20.0459284 C10.0463854,31.1757416 14.0291049,41.795779 13.4357149,52.8707869 C13.3344811,54.7617127 12.7179275,56.6216111 11.6721311,58.1909548 C11.9498091,57.774261 18.4510761,58.2037137 20.1428811,58.1057022" id="Fill-29" fill="#191718"></path>
                    <polyline id="Fill-49" fill="#EACDB0" points="26.1863448 72.1012623 29.4236624 73.1345929 32.0812627 71.7688442 32.6639153 72.1708382 32.1851715 72.8909342 34.7235995 72.3729804 36.584859 73.331295 36.9617486 76.0384551 35.505851 78.4781919 32.7105862 78.5577889 29.7838209 77.0173848 25.2896175 75.7902153 26.1863448 72.1012623"></polyline>
                    <path d="M17.8324027,68.5244141 C16.4607007,67.6217911 15.517711,66.3395094 15.395264,64.449831 C15.2828487,62.7086273 15.7021192,60.9829317 16.0107448,59.2644156 C16.9909112,53.8093334 16.8613829,48.1672936 15.6324867,42.7601713 C14.4091965,37.3794701 7.96022061,44.1449782 7.15826625,46.5725544 C6.26956628,49.2626179 6.51977132,52.1921937 6.30320234,54.9738693 C6.01227997,58.7087123 5.87449016,62.4550428 5.89012798,66.2005118 C5.90015979,68.5703637 5.30061186,74.1676026 7.86403329,75.523691 C8.55711305,75.8901392 9.3528713,76.0190854 10.1318115,76.1417135 C11.3548067,76.3349891 25.9614109,78.1278861 26.1900771,77.4257183 L28.2076503,71.2299856 C25.1688983,70.6240249 20.6171139,70.3569427 17.8324027,68.5244141" id="Fill-50" fill="#4E6279"></path>
                    <path d="M135.002988,12.005456 C134.977209,10.9033062 135.121062,9.78820991 135.325132,8.78326492 C135.676008,7.05628763 137.564988,6.28013476 139.200307,6.15767367 C142.732085,5.89343787 146.140476,4.16667282 149.589406,5.4995249 C151.561038,6.26124561 154.208641,6.44419442 155.992733,7.51832887 C156.737974,7.96699914 157.331884,8.66717095 157.794733,9.44014026 C159.397779,12.1187909 159.402305,15.8087537 157.804966,18.4916491 C157.446809,19.0935549 157.018202,19.6436747 156.567948,20.1687505 C155.636151,21.2558315 154.521339,22.5984465 153.240635,23 C153.211903,21.7649895 154.259806,17.8721275 153.381536,16.858693 C151.987874,15.2501443 148.83157,15.8059946 147.099824,16.1990586 C145.210647,16.6277785 143.52554,18.0675984 141.652893,18.3730083 C140.305476,18.5926742 138.586718,17.8776457 137.441995,17.1250512 C135.64826,15.9454347 135.049234,13.9966691 135.002988,12.005456" id="Fill-25" fill="#191718"></path>
                    <path d="M31.1256831,14.8973802 C34.807054,15.8062843 37.705309,18.8812096 38.1089707,22.3065327 C40.120925,20.6151736 41.148235,18.0176414 40.7778587,15.5585752 C40.4071798,13.0995089 38.6488002,10.8439083 36.2095818,9.69849246 C33.9271077,10.7917446 32.157532,12.72617 31.3998341,14.9558254 L31.1256831,14.8973802" id="Fill-17" fill="#191718"></path>
                </g>
            </g>
        </g>
    </g>
</svg>